# xmcd
# 
# Track frame offsets:
#     182
#     22307
#     36212
#     53917
#     69447
#     84725
#     101545
#     119885
#     139450
#     154827
# 
# Disc length: 2267
# 
# Revision: 0
# Processed by: cddbd v1.5.2PL0 Copyright (c) Steve Scherf et al.
# Submitted via: BonkEnc v1.0
# 
DISCID=9508d90a
DTITLE=Buddy Owens, Stan Endicott - Sacrifice Of Praise
DYEAR=0
DGENRE=
TTITLE0=Crown Him with many Crowns - All Hail King Jesus - We Bring the Sacrifice of Praise
TTITLE1=He is the King of Glory
TTITLE2=Hosanna in the Highest - We cry Hosanna
TTITLE3=We are Free
TTITLE4=Like a River
TTITLE5=I Will Rejoice - Good Good Lord
TTITLE6=Awesome Power
TTITLE7=Now unto the King
TTITLE8=Glory
TTITLE9=Soon and very Soon
EXTD=
EXTT0=
EXTT1=
EXTT2=
EXTT3=
EXTT4=
EXTT5=
EXTT6=
EXTT7=
EXTT8=
EXTT9=
PLAYORDER=
